<svg version="1.0" xmlns="http://www.w3.org/2000/svg"
 width="64.000000pt" height="64.000000pt" viewBox="0 0 64.000000 64.000000"
 preserveAspectRatio="xMidYMid meet">

<g transform="translate(0.000000,64.000000) scale(0.100000,-0.100000)"
fill="#000" stroke="none">
<path d="M245 621 c-22 -10 -48 -27 -57 -37 -38 -43 -58 -125 -42 -168 8 -20
24 -21 24 -1 0 11 7 14 25 9 17 -4 27 -1 31 9 3 8 23 34 45 57 43 45 48 73 22
103 -18 19 -17 20 40 15 46 -4 64 -10 85 -31 24 -25 25 -27 6 -27 -62 0 -85
-72 -31 -98 19 -9 27 -19 22 -29 -3 -9 1 -26 10 -39 14 -21 13 -24 -12 -43
-14 -12 -30 -21 -34 -21 -12 0 -11 27 1 35 17 11 12 65 -7 71 -10 3 -27 10
-39 16 -34 16 -68 6 -78 -24 -8 -23 -5 -32 24 -64 36 -42 28 -54 -21 -34 -16
7 -32 10 -35 7 -21 -21 69 -52 125 -43 79 13 151 97 151 177 0 40 -29 107 -56
131 -29 25 -89 48 -126 48 -18 0 -51 -9 -73 -19z m31 -47 c12 -17 11 -24 -9
-52 -12 -17 -30 -34 -39 -38 -10 -3 -18 -12 -18 -20 0 -16 -2 -16 -24 -8 -31
12 -16 65 32 117 29 30 39 30 58 1z m188 -60 c16 -42 0 -144 -18 -115 -4 6 -4
15 -1 21 8 13 -13 50 -29 50 -8 0 -19 6 -25 14 -10 11 -7 17 11 30 29 20 54
20 62 0z m-131 -96 c30 -14 33 -36 13 -83 l-13 -30 -8 25 c-4 14 -19 35 -32
48 -20 18 -23 26 -13 37 15 18 19 18 53 3z"/>
<path d="M180 360 c0 -5 5 -10 10 -10 6 0 10 5 10 10 0 6 -4 10 -10 10 -5 0
-10 -4 -10 -10z"/>
<path d="M151 266 c-10 -12 -11 -23 -2 -47 10 -28 8 -34 -9 -46 -11 -8 -20
-26 -20 -41 l-1 -27 -32 38 c-35 41 -72 49 -82 17 -7 -24 17 -72 49 -97 13
-11 25 -28 28 -39 3 -18 14 -19 238 -19 224 0 235 1 238 19 3 11 15 28 28 39
32 25 56 73 49 97 -10 32 -47 24 -82 -17 l-32 -38 -1 27 c0 15 -9 33 -20 41
-17 12 -19 18 -9 46 23 66 -43 85 -73 20 -9 -19 -23 -41 -32 -48 -14 -12 -16
-10 -16 13 0 16 -9 31 -25 42 -23 15 -27 15 -50 0 -16 -11 -25 -26 -25 -42 0
-23 -2 -25 -16 -13 -9 7 -23 29 -32 48 -19 40 -51 51 -71 27z m49 -41 c6 -19
25 -44 41 -56 70 -49 157 -27 194 50 21 43 35 53 35 24 0 -26 -35 -79 -65 -99
-22 -14 -25 -23 -25 -70 l0 -54 -60 0 -60 0 0 51 c0 47 -3 54 -40 88 -25 22
-43 48 -46 69 -9 44 11 42 26 -3z m144 -10 c8 -22 -4 -45 -24 -45 -20 0 -32
23 -24 45 4 8 14 15 24 15 10 0 20 -7 24 -15z m-286 -80 c17 -38 69 -65 125
-65 43 0 47 -2 47 -25 0 -24 -3 -25 -60 -25 -42 0 -60 4 -60 13 0 7 -18 30
-40 51 -22 21 -40 46 -40 57 0 27 15 24 28 -6z m127 -11 c0 -32 -21 -39 -38
-12 -8 12 -7 21 3 32 19 24 35 14 35 -20z m309 13 c8 -12 7 -21 -6 -33 -20
-20 -38 -11 -38 20 0 39 23 46 44 13z m116 3 c0 -11 -18 -37 -40 -57 -22 -21
-40 -44 -40 -50 0 -9 -19 -13 -60 -13 -57 0 -60 1 -60 25 0 23 4 25 48 25 55
0 107 27 124 65 13 30 28 33 28 5z m-383 -42 c-3 -8 -6 -5 -6 6 -1 11 2 17 5
13 3 -3 4 -12 1 -19z m190 0 c-3 -8 -6 -5 -6 6 -1 11 2 17 5 13 3 -3 4 -12 1
-19z"/>
</g>
</svg>
